<?xml version="1.0" encoding="UTF-8" standalone="no"?>
<!DOCTYPE svg PUBLIC "-//W3C//DTD SVG 1.1//EN" "http://www.w3.org/Graphics/SVG/1.1/DTD/svg11.dtd">
<svg width="100%" height="100%" viewBox="0 0 4605 4341" version="1.1" xmlns="http://www.w3.org/2000/svg" xmlns:xlink="http://www.w3.org/1999/xlink" xml:space="preserve" xmlns:serif="http://www.serif.com/" style="fill-rule:evenodd;clip-rule:evenodd;stroke-linecap:round;stroke-linejoin:round;stroke-miterlimit:1.5;">
    <g transform="matrix(0.778439,0,0,1.90942,-1161.6,-2170.29)">
        <rect x="3911.16" y="1253" width="3211.29" height="449" style="fill:rgb(204,213,174);"/>
    </g>
    <g transform="matrix(0.778439,0,0,1.69405,-1161.6,-1043.1)">
        <rect x="3911.16" y="1253" width="3211.29" height="449" style="fill:rgb(233,237,201);"/>
    </g>
    <g transform="matrix(0.778439,0,0,1.69405,-1161.6,-282.468)">
        <rect x="3911.16" y="1253" width="3211.29" height="449" style="fill:rgb(250,237,205);"/>
    </g>
    <g transform="matrix(0.778439,0,0,1.69405,-1161.6,478.377)">
        <rect x="3911.16" y="1253" width="3211.29" height="449" style="fill:rgb(221,161,94);"/>
    </g>
    <g transform="matrix(0.778439,0,0,1.68562,-1161.6,1249.57)">
        <rect x="3911.16" y="1253" width="3211.29" height="449" style="fill:rgb(188,108,37);"/>
    </g>
    <g transform="matrix(1,0,0,1,-1897,2.41865)">
        <g transform="matrix(1,0,0,1,404.238,-375.072)">
            <text x="3428px" y="973.695px" style="font-family:'Arial-BoldMT', 'Arial';font-weight:700;font-size:133.333px;">• Remove adapters and low-quality</text>
            <text x="3502.09px" y="1111.39px" style="font-family:'Arial-BoldMT', 'Arial';font-weight:700;font-size:133.333px;">bases</text>
            <text x="3428px" y="1249.09px" style="font-family:'Arial-BoldMT', 'Arial';font-weight:700;font-size:133.333px;">• Discard reads below a length/quality</text>
            <text x="3502.09px" y="1386.78px" style="font-family:'Arial-BoldMT', 'Arial';font-weight:700;font-size:133.333px;">threshold</text>
        </g>
        <g transform="matrix(1,0,0,1,291.163,0)">
            <g transform="matrix(166.667,0,0,166.667,5342.69,405)">
            </g>
            <text x="4139px" y="405px" style="font-family:'Arial-BoldMT', 'Arial';font-weight:700;font-size:166.667px;">Quality Control</text>
        </g>
    </g>
    <g transform="matrix(1,0,0,1,-1825.29,711.752)">
        <g transform="matrix(1,0,0,1,394.216,-219.751)">
            <g transform="matrix(133.333,0,0,133.333,4489.85,973.695)">
            </g>
            <g transform="matrix(133.333,0,0,133.333,4532.62,973.695)">
            </g>
            <text x="3428px" y="973.695px" style="font-family:'Arial-BoldMT', 'Arial';font-weight:700;font-size:133.333px;">• Long reads scaﬀold the genome</text>
            <text x="3428px" y="1111.39px" style="font-family:'Arial-BoldMT', 'Arial';font-weight:700;font-size:133.333px;">• Short reads resolve high-accuracy</text>
            <text x="3502.09px" y="1249.09px" style="font-family:'Arial-BoldMT', 'Arial';font-weight:700;font-size:133.333px;">regions &amp; correct errors</text>
        </g>
        <g transform="matrix(1,0,0,1,564.757,-277.863)">
            <g transform="matrix(166.667,0,0,166.667,4784.5,836)">
            </g>
            <text x="3997.07px" y="836px" style="font-family:'Arial-BoldMT', 'Arial';font-weight:700;font-size:166.667px;">Assembly</text>
        </g>
    </g>
    <g transform="matrix(1,0,0,1,-1800.78,2437.3)">
        <g transform="matrix(1,0,0,1,486.823,-371.535)">
            <text x="3428px" y="973.695px" style="font-family:'Arial-BoldMT', 'Arial';font-weight:700;font-size:133.333px;">• identify transposable elements</text>
            <text x="3428px" y="1111.39px" style="font-family:'Arial-BoldMT', 'Arial';font-weight:700;font-size:133.333px;">• determine gene structures</text>
        </g>
        <g transform="matrix(1,0,0,1,2123.81,-396.526)">
            <g transform="matrix(166.667,0,0,166.667,3255.17,836)">
            </g>
            <text x="2375.77px" y="836px" style="font-family:'Arial-BoldMT', 'Arial';font-weight:700;font-size:166.667px;">Annotation</text>
        </g>
    </g>
    <g transform="matrix(1,0,0,1,-1897,-738.033)">
        <g transform="matrix(1,0,0,1,640.412,1948.15)">
            <g transform="matrix(166.667,0,0,166.667,3819.09,836)">
            </g>
            <g transform="matrix(166.667,0,0,166.667,3872.56,836)">
            </g>
            <g transform="matrix(166.667,0,0,166.667,5259.03,836)">
            </g>
            <text x="3522.54px" y="836px" style="font-family:'Arial-BoldMT', 'Arial';font-weight:700;font-size:166.667px;">Scaﬀolding (Optional)</text>
        </g>
        <g transform="matrix(1,0,0,1,500.462,2003.6)">
            <g transform="matrix(133.333,0,0,133.333,5111.98,973.695)">
            </g>
            <g transform="matrix(133.333,0,0,133.333,5154.76,973.695)">
            </g>
            <text x="3428px" y="973.695px" style="font-family:'Arial-BoldMT', 'Arial';font-weight:700;font-size:133.333px;">• combine contigs into scaﬀold  or</text>
            <text x="3502.09px" y="1111.39px" style="font-family:'Arial-BoldMT', 'Arial';font-weight:700;font-size:133.333px;">entire chromosomes with/without</text>
            <text x="3502.09px" y="1249.09px" style="font-family:'Arial-BoldMT', 'Arial';font-weight:700;font-size:133.333px;">reference</text>
        </g>
    </g>
    <g>
        <g transform="matrix(1,0,0,1,-1260.49,2708.99)">
            <g transform="matrix(166.667,0,0,166.667,5184.32,836)">
            </g>
            <text x="3597.25px" y="836px" style="font-family:'Arial-BoldMT', 'Arial';font-weight:700;font-size:166.667px;">Quality <tspan x="4202.31px 4322.67px " y="836px 836px ">As</tspan>sessment</text>
        </g>
        <g transform="matrix(1,0,0,1,-1510.68,2736.44)">
            <text x="3428px" y="956.483px" style="font-family:'Arial-BoldMT', 'Arial';font-weight:700;font-size:116.667px;">• continuous (fewer &amp; longer fragments)</text>
            <text x="3428px" y="1076.97px" style="font-family:'Arial-BoldMT', 'Arial';font-weight:700;font-size:116.667px;">• complete (contains most of the expected</text>
            <text x="3492.83px" y="1197.45px" style="font-family:'Arial-BoldMT', 'Arial';font-weight:700;font-size:116.667px;">genes)</text>
            <text x="3428px" y="1317.93px" style="font-family:'Arial-BoldMT', 'Arial';font-weight:700;font-size:116.667px;">• correct (accurate &amp; free from major errors)</text>
        </g>
    </g>
    <g transform="matrix(0.374722,0.927137,-0.927137,0.374722,1263.61,-245.691)">
        <g transform="matrix(0.374722,-0.927137,0.927137,0.374722,-245.713,1263.61)">
            <path d="M1024.8,1056.43L941.5,1223.03L858.2,1056.43C899.85,1098.08 983.15,1098.08 1024.8,1056.43Z" style="fill:rgb(204,213,174);"/>
            <path d="M941.5,855.227L941.5,1089.75" style="fill:none;stroke:rgb(204,213,174);stroke-width:55.53px;"/>
        </g>
    </g>
    <g transform="matrix(0.374722,0.927137,-0.927137,0.374722,1263.61,1268.12)">
        <g transform="matrix(0.374722,-0.927137,0.927137,0.374722,-1649.23,696.346)">
            <path d="M1024.8,2570.24L941.5,2736.84L858.2,2570.24C899.85,2611.89 983.15,2611.89 1024.8,2570.24Z" style="fill:rgb(250,237,205);"/>
            <path d="M941.5,2369.04L941.5,2603.56" style="fill:none;stroke:rgb(250,237,205);stroke-width:55.53px;"/>
        </g>
    </g>
    <g transform="matrix(0.374722,0.927137,-0.927137,0.374722,1263.61,2026.86)">
        <g transform="matrix(0.374722,-0.927137,0.927137,0.374722,-2352.68,412.031)">
            <path d="M1024.8,3328.98L941.5,3495.58L858.2,3328.98C899.85,3370.63 983.15,3370.63 1024.8,3328.98Z" style="fill:rgb(221,161,94);"/>
            <path d="M941.5,3127.78L941.5,3362.3" style="fill:none;stroke:rgb(221,161,94);stroke-width:55.53px;"/>
        </g>
    </g>
    <g transform="matrix(0.374722,0.927137,-0.927137,0.374722,1263.61,508.309)">
        <g transform="matrix(0.374722,-0.927137,0.927137,0.374722,-944.775,981.065)">
            <path d="M1024.8,1810.43L941.5,1977.03L858.2,1810.43C899.85,1852.08 983.15,1852.08 1024.8,1810.43Z" style="fill:rgb(233,237,201);"/>
            <path d="M941.5,1609.23L941.5,1843.75" style="fill:none;stroke:rgb(233,237,201);stroke-width:55.53px;"/>
        </g>
    </g>
    <g transform="matrix(1,0,0,1,-2915,150.551)">
        <g transform="matrix(1.1112,0,0,1.45104,660.142,-890.486)">
            <ellipse cx="2876.5" cy="958.5" rx="647.5" ry="168.5" style="fill:rgb(204,213,174);"/>
        </g>
        <g transform="matrix(1,0,0,1,-110.807,-363.09)">
            <text x="3428px" y="836px" style="font-family:'Arial-BoldMT', 'Arial';font-weight:700;font-size:166.667px;">Illumina, HiFi,</text>
            <g transform="matrix(166.667,0,0,166.667,4391.13,1008.12)">
            </g>
            <text x="3548.28px" y="1008.12px" style="font-family:'Arial-BoldMT', 'Arial';font-weight:700;font-size:166.667px;">ONT reads</text>
        </g>
    </g>
    <g transform="matrix(1,0,0,1,-2915,775.366)">
        <g transform="matrix(1.1112,0,0,1.45104,660.142,-706.32)">
            <ellipse cx="2876.5" cy="958.5" rx="647.5" ry="168.5" style="fill:rgb(233,237,201);"/>
        </g>
        <g transform="matrix(1,0,0,1,-40.9417,-178.884)">
            <text x="3728.99px" y="836px" style="font-family:'Arial-BoldMT', 'Arial';font-weight:700;font-size:166.667px;">Flye</text>
            <g transform="matrix(166.667,0,0,166.667,4363.47,1008.12)">
            </g>
            <text x="3428px" y="1008.12px" style="font-family:'Arial-BoldMT', 'Arial';font-weight:700;font-size:166.667px;">nextPolish2</text>
        </g>
    </g>
    <g transform="matrix(1,0,0,1,-2915,1536)">
        <g transform="matrix(1.1112,0,0,1.45104,660.142,-706.32)">
            <ellipse cx="2876.5" cy="958.5" rx="647.5" ry="168.5" style="fill:rgb(250,237,205);"/>
        </g>
        <g transform="matrix(1,0,0,1,-3.83236,-177.908)">
            <text x="3428px" y="836px" style="font-family:'Arial-BoldMT', 'Arial';font-weight:700;font-size:166.667px;">Reference/</text>
            <text x="3437.36px" y="1008.12px" style="font-family:'Arial-BoldMT', 'Arial';font-weight:700;font-size:166.667px;">Hi-C reads</text>
        </g>
    </g>
    <g transform="matrix(1,0,0,1,-2915,2296.84)">
        <g transform="matrix(1.1112,0,0,1.45104,660.142,-706.32)">
            <ellipse cx="2876.5" cy="958.5" rx="647.5" ry="168.5" style="fill:rgb(221,161,94);"/>
        </g>
        <g transform="matrix(1,0,0,1,-176.033,-145.925)">
            <text x="3428px" y="836px" style="font-family:'Arial-BoldMT', 'Arial';font-weight:700;font-size:166.667px;">RepeatModeler</text>
            <g transform="matrix(166.667,0,0,166.667,4335.8,1008.12)">
            </g>
            <text x="3714.95px" y="1008.12px" style="font-family:'Arial-BoldMT', 'Arial';font-weight:700;font-size:166.667px;">Braker3</text>
        </g>
    </g>
    <g transform="matrix(1,0,0,1,-1945.5,-133.922)">
        <g transform="matrix(1.1112,0,0,1.45104,-309.358,2483.18)">
            <ellipse cx="2876.5" cy="958.5" rx="647.5" ry="168.5" style="fill:rgb(188,108,37);"/>
        </g>
        <g transform="matrix(1,0,0,1,-871.282,3006.63)">
            <text x="3428px" y="836px" style="font-family:'Arial-BoldMT', 'Arial';font-weight:700;font-size:166.667px;">BUSCO/</text>
            <g transform="matrix(166.667,0,0,166.667,4043.76,1008.12)">
            </g>
            <text x="3460.43px" y="1008.12px" style="font-family:'Arial-BoldMT', 'Arial';font-weight:700;font-size:166.667px;">QUAST</text>
        </g>
    </g>
</svg>
