<?xml version="1.0" encoding="UTF-8" standalone="no"?>
<!DOCTYPE svg PUBLIC "-//W3C//DTD SVG 1.1//EN" "http://www.w3.org/Graphics/SVG/1.1/DTD/svg11.dtd">
<svg width="100%" height="100%" viewBox="0 0 9093 7577" version="1.1" xmlns="http://www.w3.org/2000/svg" xmlns:xlink="http://www.w3.org/1999/xlink" xml:space="preserve" xmlns:serif="http://www.serif.com/" style="fill-rule:evenodd;clip-rule:evenodd;stroke-linecap:round;stroke-linejoin:round;stroke-miterlimit:1.5;">
    <g transform="matrix(1,0,0,1,-0.18941,3155.7)">
        <g transform="matrix(7.20457e-17,1.74048,-1,9.0578e-17,3507.38,9.49238)">
            <path d="M98.063,708L2269,708" style="fill:none;stroke:black;stroke-width:3.33px;"/>
        </g>
        <g transform="matrix(1,0,0,1,245.063,102.296)">
            <g transform="matrix(66.6667,0,0,66.6667,2535.9,47.7539)">
            </g>
            <text x="14.844px" y="47.754px" style="font-family:'ArialMT', 'Arial';font-size:66.667px;"><tspan x="14.844px 55.632px 74.154px " y="47.754px 47.754px 47.754px ">A |</tspan> B | C | D | E | F | G | H | I | J | K | L<tspan x="1110.48px 1129px " y="47.754px 47.754px "> |</tspan> M | N | O | P<tspan x="1526.73px 1545.25px " y="47.754px 47.754px "> |</tspan> Q | R | S | <tspan x="1887.43px 1926.95px 1945.48px " y="47.754px 47.754px 47.754px ">T |</tspan> U | V | W | X | <tspan x="2397.56px 2440.82px 2459.34px " y="47.754px 47.754px 47.754px ">Y |</tspan> Z</text>
        </g>
        <g transform="matrix(6.12323e-17,-1,1,6.12323e-17,138.189,3958.64)">
            <g transform="matrix(66.6667,0,0,66.6667,2314.74,47.7539)">
            </g>
            <text x="1463.73px" y="47.754px" style="font-family:'ArialMT', 'Arial';font-size:66.667px;">Y<tspan x="1506.99px 1525.52px " y="47.754px 47.754px "> a</tspan>xis - species 2 [38 letters]</text>
        </g>
        <g transform="matrix(6.12323e-17,1,-1,6.12323e-17,2877.25,180.17)">
            <g transform="matrix(66.6667,0,0,66.6667,1358.72,47.7539)">
            </g>
            <text x="14.844px" y="47.754px" style="font-family:'ArialMT', 'Arial';font-size:66.667px;"><tspan x="14.844px 55.632px 74.154px " y="47.754px 47.754px 47.754px ">A |</tspan> B | C | D | E | F | G | H | I | J | K | L<tspan x="1110.48px 1129px " y="47.754px 47.754px "> |</tspan> M | N |</text>
        </g>
        <g transform="matrix(-6.12323e-17,1,-1,-6.12323e-17,2877.25,1521.33)">
            <g transform="matrix(66.6667,0,0,66.6667,1194.5,47.7539)">
            </g>
            <text x="0px" y="47.754px" style="font-family:'ArialMT', 'Arial';font-size:66.667px;">| O | P<tspan x="185.319px 203.841px " y="47.754px 47.754px "> |</tspan> Q | R | S | <tspan x="546.029px 585.547px 604.069px " y="47.754px 47.754px 47.754px ">T |</tspan> U | V | W | X | <tspan x="1056.15px 1099.41px 1117.94px " y="47.754px 47.754px 47.754px ">Y |</tspan> Z</text>
        </g>
        <g transform="matrix(-6.12323e-17,1,-1,-6.12323e-17,2877.25,2730.64)">
            <g transform="matrix(66.6667,0,0,66.6667,1194.5,47.7539)">
            </g>
            <text x="0px" y="47.754px" style="font-family:'ArialMT', 'Arial';font-size:66.667px;">| O | P<tspan x="185.319px 203.841px " y="47.754px 47.754px "> |</tspan> Q | R | S | <tspan x="546.029px 585.547px 604.069px " y="47.754px 47.754px 47.754px ">T |</tspan> U | V | W | X | <tspan x="1056.15px 1099.41px 1117.94px " y="47.754px 47.754px 47.754px ">Y |</tspan> Z</text>
        </g>
        <g transform="matrix(1.1766,0,0,1,129.682,-527.83)">
            <path d="M98.063,708L2269,708" style="fill:none;stroke:black;stroke-width:4.32px;"/>
        </g>
        <g transform="matrix(1,0,0,1,0,147)">
            <g transform="matrix(1.17521,0,0,1,129.818,3098.48)">
                <path d="M98.063,708L2269,708" style="fill:none;stroke:rgb(2,133,0);stroke-width:21.1px;"/>
            </g>
            <g transform="matrix(9.57196e-17,1.7368,-1,7.01921e-17,953.063,-137.146)">
                <path d="M98.063,708L2269,708" style="fill:none;stroke:rgb(2,133,0);stroke-width:16.24px;"/>
            </g>
        </g>
        <g transform="matrix(1.67581,1.49487,-1.29516,1.44623,1663.7,-790.296)">
            <path d="M-155.918,861.235L1403.67,966.115" style="fill:none;stroke:rgb(255,44,44);stroke-width:12.71px;"/>
        </g>
        <g transform="matrix(0.805842,0.623033,-1.33742,1.40388,2925.67,1673.39)">
            <path d="M-155.918,861.235L1403.67,966.115" style="fill:none;stroke:rgb(255,44,44);stroke-width:17.99px;"/>
        </g>
    </g>
    <g transform="matrix(1,0,0,1,-0.18941,37)">
        <g transform="matrix(7.20457e-17,1.18937,-1,6.18973e-17,3507.38,63.5359)">
            <path d="M98.063,708L2269,708" style="fill:none;stroke:black;stroke-width:4.3px;"/>
        </g>
        <g transform="matrix(1,0,0,1,245.063,102.296)">
            <g transform="matrix(66.6667,0,0,66.6667,2535.9,47.7539)">
            </g>
            <text x="14.844px" y="47.754px" style="font-family:'ArialMT', 'Arial';font-size:66.667px;"><tspan x="14.844px 55.632px 74.154px " y="47.754px 47.754px 47.754px ">A |</tspan> B | C | D | E | F | G | H | I | J | K | L<tspan x="1110.48px 1129px " y="47.754px 47.754px "> |</tspan> M | N | O | P<tspan x="1526.73px 1545.25px " y="47.754px 47.754px "> |</tspan> Q | R | S | <tspan x="1887.43px 1926.95px 1945.48px " y="47.754px 47.754px 47.754px ">T |</tspan> U | V | W | X | <tspan x="2397.56px 2440.82px 2459.34px " y="47.754px 47.754px 47.754px ">Y |</tspan> Z</text>
        </g>
        <g transform="matrix(1,0,0,1,245.063,2809.1)">
            <g transform="matrix(66.6667,0,0,66.6667,1757.04,47.7539)">
            </g>
            <text x="797.275px" y="47.754px" style="font-family:'ArialMT', 'Arial';font-size:66.667px;">X axis — sequence 1 [26 letters]</text>
        </g>
        <g transform="matrix(6.12323e-17,-1,1,6.12323e-17,138.189,3360.43)">
            <g transform="matrix(66.6667,0,0,66.6667,2368.52,47.7539)">
            </g>
            <text x="1409.96px" y="47.754px" style="font-family:'ArialMT', 'Arial';font-size:66.667px;">Y<tspan x="1453.22px 1471.74px " y="47.754px 47.754px "> a</tspan>xis — sequence 2 [26 letters]</text>
        </g>
        <g transform="matrix(6.12323e-17,1,-1,6.12323e-17,2877.25,180.17)">
            <g transform="matrix(66.6667,0,0,66.6667,1358.72,47.7539)">
            </g>
            <text x="14.844px" y="47.754px" style="font-family:'ArialMT', 'Arial';font-size:66.667px;"><tspan x="14.844px 55.632px 74.154px " y="47.754px 47.754px 47.754px ">A |</tspan> B | C | D | E | F | G | H | I | J | K | L<tspan x="1110.48px 1129px " y="47.754px 47.754px "> |</tspan> M | N |</text>
        </g>
        <g transform="matrix(-6.30115e-17,1,-1,-5.94208e-17,2877.25,1521.91)">
            <g transform="matrix(66.6667,0,0,66.6667,1194.5,47.7539)">
            </g>
            <text x="0px" y="47.754px" style="font-family:'ArialMT', 'Arial';font-size:66.667px;">| O | P<tspan x="185.319px 203.841px " y="47.754px 47.754px "> |</tspan> Q | R | S | <tspan x="546.029px 585.547px 604.069px " y="47.754px 47.754px 47.754px ">T |</tspan> U | V | W | X | <tspan x="1056.15px 1099.41px 1117.94px " y="47.754px 47.754px 47.754px ">Y |</tspan> Z</text>
        </g>
        <g transform="matrix(1.1766,0,0,1,129.682,-527.83)">
            <path d="M98.063,708L2269,708" style="fill:none;stroke:black;stroke-width:4.32px;"/>
        </g>
        <g transform="matrix(1,0,0,1,0,147)">
            <g transform="matrix(1.18498,0,0,1,128.86,1908.22)">
                <path d="M98.063,708L2269,708" style="fill:none;stroke:rgb(2,133,0);stroke-width:21px;"/>
            </g>
            <g transform="matrix(6.27155e-17,1.18937,-1,6.7069e-17,953.063,-83.4641)">
                <path d="M98.063,708L2269,708" style="fill:none;stroke:rgb(2,133,0);stroke-width:20.95px;"/>
            </g>
        </g>
        <g transform="matrix(1.67019,1.4941,-1.25916,1.40999,1630.82,-760.211)">
            <path d="M-155.918,861.235L1403.67,966.115" style="fill:none;stroke:rgb(255,44,44);stroke-width:12.85px;"/>
        </g>
        <g transform="matrix(1,0,0,1,-2372.25,2212.48)">
            <g transform="matrix(166.667,0,0,166.667,4585.71,836)">
            </g>
            <text x="3205.75px" y="836px" style="font-family:'Arial-BoldMT', 'Arial';font-weight:700;font-size:166.667px;">(A) Perfect match</text>
        </g>
        <g transform="matrix(1,0,0,1,-795.984,621.482)">
            <g transform="matrix(333.333,0,0,333.333,3993.06,836)">
            </g>
            <text x="3798.4px" y="836px" style="font-family:'Arial-BoldMT', 'Arial';font-weight:700;font-size:333.333px;">=</text>
        </g>
    </g>
    <g transform="matrix(1,0,0,1,3182.89,37)">
        <g transform="matrix(7.20457e-17,1.18937,-1,6.18973e-17,3507.38,63.5359)">
            <path d="M98.063,708L2269,708" style="fill:none;stroke:black;stroke-width:4.3px;"/>
        </g>
        <g transform="matrix(1,0,0,1,245.063,102.296)">
            <g transform="matrix(66.6667,0,0,66.6667,2535.9,47.7539)">
            </g>
            <text x="14.844px" y="47.754px" style="font-family:'ArialMT', 'Arial';font-size:66.667px;"><tspan x="14.844px 55.632px 74.154px " y="47.754px 47.754px 47.754px ">A |</tspan> B | C | D | E | F | G | H | I | J | K | L<tspan x="1110.48px 1129px " y="47.754px 47.754px "> |</tspan> M | N | O | P<tspan x="1526.73px 1545.25px " y="47.754px 47.754px "> |</tspan> Q | R | S | <tspan x="1887.43px 1926.95px 1945.48px " y="47.754px 47.754px 47.754px ">T |</tspan> U | V | W | X | <tspan x="2397.56px 2440.82px 2459.34px " y="47.754px 47.754px 47.754px ">Y |</tspan> Z</text>
        </g>
        <g transform="matrix(1,0,0,1,245.063,2809.1)">
            <g transform="matrix(66.6667,0,0,66.6667,1757.04,47.7539)">
            </g>
            <text x="797.275px" y="47.754px" style="font-family:'ArialMT', 'Arial';font-size:66.667px;">X axis — sequence 1 [26 letters]</text>
        </g>
        <g transform="matrix(6.12323e-17,-1,1,6.12323e-17,138.189,3360.43)">
            <g transform="matrix(66.6667,0,0,66.6667,2368.52,47.7539)">
            </g>
            <text x="1409.96px" y="47.754px" style="font-family:'ArialMT', 'Arial';font-size:66.667px;">Y<tspan x="1453.22px 1471.74px " y="47.754px 47.754px "> a</tspan>xis — sequence 2 [26 letters]</text>
        </g>
        <g transform="matrix(-1,0,0,-1,5693.5,2911.39)">
            <g transform="matrix(6.12323e-17,1,-1,6.12323e-17,2877.25,180.17)">
                <g transform="matrix(66.6667,0,0,66.6667,1358.72,47.7539)">
                </g>
                <text x="14.844px" y="47.754px" style="font-family:'ArialMT', 'Arial';font-size:66.667px;"><tspan x="14.844px 55.632px 74.154px " y="47.754px 47.754px 47.754px ">A |</tspan> B | C | D | E | F | G | H | I | J | K | L<tspan x="1110.48px 1129px " y="47.754px 47.754px "> |</tspan> M | N |</text>
            </g>
            <g transform="matrix(-6.30115e-17,1,-1,-5.94208e-17,2877.25,1521.91)">
                <g transform="matrix(66.6667,0,0,66.6667,1194.5,47.7539)">
                </g>
                <text x="0px" y="47.754px" style="font-family:'ArialMT', 'Arial';font-size:66.667px;">| O | P<tspan x="185.319px 203.841px " y="47.754px 47.754px "> |</tspan> Q | R | S | <tspan x="546.029px 585.547px 604.069px " y="47.754px 47.754px 47.754px ">T |</tspan> U | V | W | X | <tspan x="1056.15px 1099.41px 1117.94px " y="47.754px 47.754px 47.754px ">Y |</tspan> Z</text>
            </g>
        </g>
        <g transform="matrix(1.1766,0,0,1,129.682,-527.83)">
            <path d="M98.063,708L2269,708" style="fill:none;stroke:black;stroke-width:4.32px;"/>
        </g>
        <g transform="matrix(1,0,0,1,0,147)">
            <g transform="matrix(1.17521,0,0,1,129.818,1908.22)">
                <path d="M98.063,708L2269,708" style="fill:none;stroke:rgb(2,133,0);stroke-width:21.1px;"/>
            </g>
            <g transform="matrix(6.27155e-17,1.18937,-1,6.7069e-17,953.063,-83.4641)">
                <path d="M98.063,708L2269,708" style="fill:none;stroke:rgb(2,133,0);stroke-width:20.95px;"/>
            </g>
        </g>
        <g transform="matrix(-1.6724,1.49189,1.29205,1.44282,1383.28,-788.823)">
            <path d="M-155.918,861.235L1403.67,966.115" style="fill:none;stroke:rgb(255,44,44);stroke-width:12.74px;"/>
        </g>
        <g transform="matrix(1,0,0,1,-2372.25,2212.48)">
            <g transform="matrix(166.667,0,0,166.667,4585.71,836)">
            </g>
            <text x="3205.75px" y="836px" style="font-family:'Arial-BoldMT', 'Arial';font-weight:700;font-size:166.667px;">(B) Perfect match</text>
        </g>
    </g>
    <g transform="matrix(1,0,0,1,3182.89,3155)">
        <g transform="matrix(7.20457e-17,1.18937,-1,6.18973e-17,3507.38,63.5359)">
            <path d="M98.063,708L2269,708" style="fill:none;stroke:black;stroke-width:4.3px;"/>
        </g>
        <g transform="matrix(1,0,0,1,245.063,102.296)">
            <g transform="matrix(66.6667,0,0,66.6667,2535.9,47.7539)">
            </g>
            <text x="14.844px" y="47.754px" style="font-family:'ArialMT', 'Arial';font-size:66.667px;"><tspan x="14.844px 55.632px 74.154px " y="47.754px 47.754px 47.754px ">A |</tspan> B | C | D | E | F | G | H | I | J | K | L<tspan x="1110.48px 1129px " y="47.754px 47.754px "> |</tspan> M | N | O | P<tspan x="1526.73px 1545.25px " y="47.754px 47.754px "> |</tspan> Q | R | S | <tspan x="1887.43px 1926.95px 1945.48px " y="47.754px 47.754px 47.754px ">T |</tspan> U | V | W | X | <tspan x="2397.56px 2440.82px 2459.34px " y="47.754px 47.754px 47.754px ">Y |</tspan> Z</text>
        </g>
        <g transform="matrix(1,0,0,1,245.063,2809.1)">
            <g transform="matrix(66.6667,0,0,66.6667,1757.04,47.7539)">
            </g>
            <text x="797.275px" y="47.754px" style="font-family:'ArialMT', 'Arial';font-size:66.667px;">X axis — sequence 1 [26 letters]</text>
        </g>
        <g transform="matrix(6.12323e-17,-1,1,6.12323e-17,138.189,3360.43)">
            <g transform="matrix(66.6667,0,0,66.6667,2368.52,47.7539)">
            </g>
            <text x="1409.96px" y="47.754px" style="font-family:'ArialMT', 'Arial';font-size:66.667px;">Y<tspan x="1453.22px 1471.74px " y="47.754px 47.754px "> a</tspan>xis — sequence 2 [26 letters]</text>
        </g>
        <g transform="matrix(-1,0,0,-1,5693.5,2911.39)">
            <g transform="matrix(6.12323e-17,1,-1,6.12323e-17,2877.25,180.17)">
                <g transform="matrix(66.6667,0,0,66.6667,1358.72,47.7539)">
                </g>
                <text x="14.844px" y="47.754px" style="font-family:'ArialMT', 'Arial';font-size:66.667px;"><tspan x="14.844px 55.632px 74.154px " y="47.754px 47.754px 47.754px ">A |</tspan> B | C | D | E | F | G | H | I | J | K | L<tspan x="1110.48px 1129px " y="47.754px 47.754px "> |</tspan> M | N |</text>
            </g>
            <g transform="matrix(6.30115e-17,-1,1,5.94208e-17,2816.38,2753.22)">
                <g transform="matrix(66.6667,0,0,66.6667,1194.5,47.7539)">
                </g>
                <text x="0px" y="47.754px" style="font-family:'ArialMT', 'Arial';font-size:66.667px;">| O | P<tspan x="185.319px 203.841px " y="47.754px 47.754px "> |</tspan> Q | R | S | <tspan x="546.029px 585.547px 604.069px " y="47.754px 47.754px 47.754px ">T |</tspan> U | V | W | X | <tspan x="1056.15px 1099.41px 1117.94px " y="47.754px 47.754px 47.754px ">Y |</tspan> Z</text>
            </g>
        </g>
        <g transform="matrix(1.1766,0,0,1,129.682,-527.83)">
            <path d="M98.063,708L2269,708" style="fill:none;stroke:black;stroke-width:4.32px;"/>
        </g>
        <g transform="matrix(1,0,0,1,0,147)">
            <g transform="matrix(1.17521,0,0,1,129.818,1908.22)">
                <path d="M98.063,708L2269,708" style="fill:none;stroke:rgb(2,133,0);stroke-width:21.1px;"/>
            </g>
            <g transform="matrix(6.27155e-17,1.18937,-1,6.7069e-17,953.063,-83.4641)">
                <path d="M98.063,708L2269,708" style="fill:none;stroke:rgb(2,133,0);stroke-width:20.95px;"/>
            </g>
        </g>
        <g transform="matrix(-0.713565,0.636548,0.551282,0.615609,753.067,1210.97)">
            <path d="M-155.918,861.235L1403.67,966.115" style="fill:none;stroke:rgb(255,44,44);stroke-width:29.85px;"/>
        </g>
        <g transform="matrix(0.897809,0.800905,-0.693623,0.77456,2181.16,-335.033)">
            <path d="M-155.918,861.235L1403.67,966.115" style="fill:none;stroke:rgb(255,44,44);stroke-width:23.72px;"/>
        </g>
        <g transform="matrix(1,0,0,1,-2372.25,2212.48)">
            <g transform="matrix(166.667,0,0,166.667,4400.45,836)">
            </g>
            <text x="3391.01px" y="836px" style="font-family:'Arial-BoldMT', 'Arial';font-weight:700;font-size:166.667px;">(E) Inversion</text>
        </g>
    </g>
    <g transform="matrix(1,0,0,0.594963,-165,5328.2)">
        <g transform="matrix(1,0,0,-1,-871,2459)">
            <path d="M4015,488L3994,504.894L3994,1510L3937,1510" style="fill:none;stroke:black;stroke-width:30.38px;"/>
        </g>
        <g transform="matrix(1,0,0,1,-871,1483)">
            <path d="M4015,488L3994,504.894L3994,1510L3937,1510" style="fill:none;stroke:black;stroke-width:30.38px;"/>
        </g>
    </g>
    <g transform="matrix(-0.404878,-4.95833e-17,2.40827e-18,-0.019665,8336.41,206.982)">
        <rect x="4061" y="283" width="205" height="3224.87" style="fill:rgb(0,0,255);fill-opacity:0.2;"/>
    </g>
    <g transform="matrix(-0.478049,-5.85441e-17,2.40827e-18,-0.019665,9398.55,206.982)">
        <rect x="4061" y="283" width="205" height="3224.87" style="fill-opacity:0.2;"/>
    </g>
    <g transform="matrix(-0.307317,-3.76355e-17,3.20574e-18,-0.0261769,10203.2,1724.83)">
        <rect x="4061" y="283" width="205" height="3224.87" style="fill:rgb(0,0,255);fill-opacity:0.2;"/>
    </g>
    <g transform="matrix(-0.307317,-3.76355e-17,3.69942e-18,-0.030208,10203.2,2489.97)">
        <rect x="4061" y="283" width="205" height="3224.87" style="fill-opacity:0.2;"/>
    </g>
    <path d="M6651.5,223.17L6651.5,1674.47L8876.21,1674.47" style="fill:none;stroke:rgb(0,0,255);stroke-opacity:0.5;stroke-width:12.5px;stroke-dasharray:12.5,25,12.5,0;"/>
    <g transform="matrix(1,0,0,1,6076.83,37)">
        <g transform="matrix(7.20457e-17,1.18937,-1,6.18973e-17,3507.38,63.5359)">
            <path d="M98.063,708L2269,708" style="fill:none;stroke:black;stroke-width:4.3px;"/>
        </g>
        <g transform="matrix(1,0,0,1,245.063,102.296)">
            <g transform="matrix(66.6667,0,0,66.6667,2535.9,47.7539)">
            </g>
            <text x="14.844px" y="47.754px" style="font-family:'ArialMT', 'Arial';font-size:66.667px;"><tspan x="14.844px 55.632px 74.154px " y="47.754px 47.754px 47.754px ">A |</tspan> B | C | L<tspan x="345.931px 364.453px " y="47.754px 47.754px "> |</tspan> E | F | G | H | I | J | K | D | M | N | O | P<tspan x="1526.73px 1545.25px " y="47.754px 47.754px "> |</tspan> Q | R | S | <tspan x="1887.43px 1926.95px 1945.48px " y="47.754px 47.754px 47.754px ">T |</tspan> U | V | W | X | <tspan x="2397.56px 2440.82px 2459.34px " y="47.754px 47.754px 47.754px ">Y |</tspan> Z</text>
        </g>
        <g transform="matrix(0.045614,0,0,4.0811,421.099,-22126.4)">
            <rect x="6207" y="6230" width="855" height="456" style="fill:rgb(204,204,204);"/>
        </g>
        <g transform="matrix(2.79305e-18,-0.045614,3.72584,2.28142e-16,-22110.7,4883.24)">
            <rect x="6207" y="6230" width="855" height="456" style="fill:rgb(204,204,204);"/>
        </g>
        <g transform="matrix(1.46098e-17,-0.238596,4.76856,2.9199e-16,-29003.9,6640.82)">
            <rect x="6207" y="6230" width="855" height="456" style="fill:rgb(204,204,204);"/>
        </g>
        <g transform="matrix(9.88481e-17,-1.61431,0.408907,2.50383e-17,-1448.27,14620.1)">
            <rect x="6207" y="6230" width="855" height="456" style="fill:rgb(204,204,204);"/>
        </g>
        <g transform="matrix(2.79305e-18,-0.045614,0.890409,5.45218e-17,-3155.02,3777.24)">
            <rect x="6207" y="6230" width="855" height="456" style="fill:rgb(204,204,204);"/>
        </g>
        <g transform="matrix(1.96399e-17,-0.320744,0.474697,2.90668e-17,-565.134,5484.97)">
            <rect x="6207" y="6230" width="855" height="456" style="fill:rgb(204,204,204);"/>
        </g>
        <g transform="matrix(1,0,0,1,245.063,2809.1)">
            <g transform="matrix(66.6667,0,0,66.6667,1757.04,47.7539)">
            </g>
            <text x="797.275px" y="47.754px" style="font-family:'ArialMT', 'Arial';font-size:66.667px;">X axis — sequence 1 [26 letters]</text>
        </g>
        <g transform="matrix(6.12323e-17,-1,1,6.12323e-17,138.189,3360.43)">
            <g transform="matrix(66.6667,0,0,66.6667,2368.52,47.7539)">
            </g>
            <text x="1409.96px" y="47.754px" style="font-family:'ArialMT', 'Arial';font-size:66.667px;">Y<tspan x="1453.22px 1471.74px " y="47.754px 47.754px "> a</tspan>xis — sequence 2 [26 letters]</text>
        </g>
        <g transform="matrix(-1,0,0,-1,5693.5,2911.39)">
            <g transform="matrix(6.12323e-17,1,-1,6.12323e-17,2877.25,180.17)">
                <g transform="matrix(66.6667,0,0,66.6667,1358.72,47.7539)">
                </g>
                <text x="14.844px" y="47.754px" style="font-family:'ArialMT', 'Arial';font-size:66.667px;"><tspan x="14.844px 55.632px 74.154px " y="47.754px 47.754px 47.754px ">A |</tspan> B | C | D | E | F | G | H | I | J | K | L<tspan x="1110.48px 1129px " y="47.754px 47.754px "> |</tspan> M | N |</text>
            </g>
            <g transform="matrix(-6.30115e-17,1,-1,-5.94208e-17,2877.25,1521.91)">
                <g transform="matrix(66.6667,0,0,66.6667,1194.5,47.7539)">
                </g>
                <text x="0px" y="47.754px" style="font-family:'ArialMT', 'Arial';font-size:66.667px;">| O | P<tspan x="185.319px 203.841px " y="47.754px 47.754px "> |</tspan> Q | R | S | <tspan x="546.029px 585.547px 604.069px " y="47.754px 47.754px 47.754px ">T |</tspan> U | V | W | X | <tspan x="1056.15px 1099.41px 1117.94px " y="47.754px 47.754px 47.754px ">Y |</tspan> Z</text>
            </g>
        </g>
        <g transform="matrix(1.1766,0,0,1,129.682,-527.83)">
            <path d="M98.063,708L2269,708" style="fill:none;stroke:black;stroke-width:4.32px;"/>
        </g>
        <g transform="matrix(1,0,0,1,0,147)">
            <g transform="matrix(1.17521,0,0,1,129.818,1908.22)">
                <path d="M98.063,708L2269,708" style="fill:none;stroke:rgb(2,133,0);stroke-width:21.1px;"/>
            </g>
            <g transform="matrix(6.27155e-17,1.18937,-1,6.7069e-17,953.063,-83.4641)">
                <path d="M98.063,708L2269,708" style="fill:none;stroke:rgb(2,133,0);stroke-width:20.95px;"/>
            </g>
        </g>
        <g transform="matrix(-1.6724,1.49189,1.29205,1.44282,1383.28,-788.823)">
            <path d="M-155.918,861.235L711.076,919.54" style="fill:none;stroke:rgb(255,44,44);stroke-width:12.74px;"/>
        </g>
        <g transform="matrix(-1.6724,1.49189,1.29205,1.44282,1383.28,-788.823)">
            <path d="M775.408,923.866L1191.05,951.817" style="fill:none;stroke:rgb(255,44,44);stroke-width:12.74px;"/>
        </g>
        <g transform="matrix(-1.6724,1.49189,1.29205,1.44282,1383.28,-788.823)">
            <path d="M1249.7,955.762L1403.67,966.115" style="fill:none;stroke:rgb(255,44,44);stroke-width:12.74px;"/>
        </g>
        <g transform="matrix(1,0,0,1,-6076.83,-37)">
            <path d="M7409.19,221.17L7409.19,2432.59L8871.21,2432.59" style="fill:none;stroke:black;stroke-opacity:0.5;stroke-width:12.5px;stroke-dasharray:12.5,25,12.5,0;"/>
        </g>
        <g transform="matrix(1,0,0,1,-5968.83,17.3944)">
            <circle cx="7301.19" cy="2378.19" r="20.194" style="fill:rgb(255,44,44);"/>
        </g>
        <g transform="matrix(1,0,0,1,-6726.52,-740.722)">
            <circle cx="7301.19" cy="2378.19" r="20.194" style="fill:rgb(0,0,255);stroke:black;stroke-width:0.01px;"/>
        </g>
        <g transform="matrix(1,0,0,1,-2372.25,2212.48)">
            <g transform="matrix(166.667,0,0,166.667,4789.49,836)">
            </g>
            <text x="3001.97px" y="836px" style="font-family:'Arial-BoldMT', 'Arial';font-weight:700;font-size:166.667px;">(C) Single mismatches</text>
        </g>
    </g>
    <g transform="matrix(1,0,0,1,244.874,7165.1)">
        <g transform="matrix(66.6667,0,0,66.6667,1757.04,47.7539)">
        </g>
        <text x="797.275px" y="47.754px" style="font-family:'ArialMT', 'Arial';font-size:66.667px;">X axis — sequence 1 [26 letters]</text>
    </g>
    <g transform="matrix(1,0,0,1,-2372.44,6568.48)">
        <g transform="matrix(166.667,0,0,166.667,4488.26,836)">
        </g>
        <text x="3303.2px" y="836px" style="font-family:'Arial-BoldMT', 'Arial';font-weight:700;font-size:166.667px;">(D) Duplication</text>
    </g>
    <g transform="matrix(1,0,0,1,6077.7,3155.7)">
        <g>
            <g transform="matrix(7.20457e-17,0.992877,-1,5.16712e-17,3507.38,82.8049)">
                <path d="M98.063,708L2269,708" style="fill:none;stroke:black;stroke-width:4.74px;"/>
            </g>
            <g transform="matrix(1,0,0,1,436.982,102.296)">
                <g transform="matrix(66.6667,0,0,66.6667,2334.57,47.7539)">
                </g>
                <text x="14.844px" y="47.754px" style="font-family:'ArialMT', 'Arial';font-size:66.667px;"><tspan x="14.844px 55.632px 74.154px " y="47.754px 47.754px 47.754px ">A |</tspan> B | C | F | G | H | I | J | K | L<tspan x="909.147px 927.669px " y="47.754px 47.754px "> |</tspan> M | N | O | P<tspan x="1325.39px 1343.91px " y="47.754px 47.754px "> |</tspan> Q | R | S | <tspan x="1686.1px 1725.62px 1744.14px " y="47.754px 47.754px 47.754px ">T |</tspan> U | V | W | X | <tspan x="2196.22px 2239.49px 2258.01px " y="47.754px 47.754px 47.754px ">Y |</tspan> Z</text>
            </g>
            <g transform="matrix(6.12323e-17,-1,1,6.12323e-17,312.189,2547.47)">
                <g transform="matrix(66.6667,0,0,66.6667,1715.24,47.7539)">
                </g>
                <text x="864.232px" y="47.754px" style="font-family:'ArialMT', 'Arial';font-size:66.667px;">Y<tspan x="907.493px 926.016px " y="47.754px 47.754px "> a</tspan>xis - species 2 [22 letters]</text>
            </g>
            <g transform="matrix(1.09138,0,0,1,323.039,-527.83)">
                <path d="M98.063,708L2269,708" style="fill:none;stroke:black;stroke-width:4.51px;"/>
            </g>
            <g transform="matrix(1,0,0,1,0,147)">
                <g transform="matrix(1.08908,0,0,1,325.265,1483.3)">
                    <path d="M98.063,708L2269,708" style="fill:none;stroke:rgb(2,133,0);stroke-width:22.02px;"/>
                </g>
                <g transform="matrix(9.57196e-17,0.992717,-1,4.01204e-17,1140.06,-64.1794)">
                    <path d="M98.063,708L2269,708" style="fill:none;stroke:rgb(2,133,0);stroke-width:23.1px;"/>
                </g>
            </g>
            <g transform="matrix(0.667263,-0.635718,-0.213598,-0.276365,1613.1,1565.05)">
                <path d="M-155.918,861.235L1403.67,966.115" style="fill:none;stroke:rgb(255,44,44);stroke-width:37px;"/>
            </g>
            <g transform="matrix(0.0759948,-0.0466142,-0.216687,-0.222171,2852.82,491.784)">
                <path d="M-155.918,861.235L1403.67,966.115" style="fill:none;stroke:rgb(255,44,44);stroke-width:124.23px;"/>
            </g>
            <g transform="matrix(0.19844,-0.169323,-0.210739,-0.228131,986.406,1959.23)">
                <path d="M-155.918,861.235L1403.67,966.115" style="fill:none;stroke:rgb(255,44,44);stroke-width:94.78px;"/>
            </g>
            <g transform="matrix(0.140037,-0.110794,-0.213576,-0.225288,679.126,2464.32)">
                <path d="M-155.918,861.235L1403.67,966.115" style="fill:none;stroke:rgb(255,44,44);stroke-width:109.55px;"/>
            </g>
        </g>
    </g>
    <g transform="matrix(1,0,0,1,6414.77,5540)">
        <g transform="matrix(66.6667,0,0,66.6667,1757.04,47.7539)">
        </g>
        <text x="797.275px" y="47.754px" style="font-family:'ArialMT', 'Arial';font-size:66.667px;">X axis — sequence 1 [24 letters]</text>
    </g>
    <g transform="matrix(1,0,0,1,3796.15,5024.21)">
        <g transform="matrix(166.667,0,0,166.667,5039.25,836)">
        </g>
        <text x="2752.22px" y="836px" style="font-family:'Arial-BoldMT', 'Arial';font-weight:700;font-size:166.667px;">(F) Indels (insertion/deletion)</text>
    </g>
    <g transform="matrix(1,0,0,1,3971.5,4289.82)">
        <g transform="matrix(116.667,0,0,116.667,4599.18,836)">
        </g>
        <text x="3224.7px" y="836px" style="font-family:'Arial-BoldMT', 'Arial';font-weight:700;font-size:116.667px;">Ins in Seq2 / Del in Seq1</text>
    </g>
    <g transform="matrix(6.12323e-17,-1,1,6.12323e-17,6464.25,7901.19)">
        <g transform="matrix(100,0,0,100,4498.69,836)">
        </g>
        <text x="3320.56px" y="836px" style="font-family:'Arial-BoldMT', 'Arial';font-weight:700;font-size:100px;">Ins in Seq1 / Del in Seq2</text>
    </g>
    <g transform="matrix(1,0,0,1,4681.14,2569.24)">
        <text x="3796.75px" y="836px" style="font-family:'Arial-BoldMT', 'Arial';font-weight:700;font-size:37.5px;">Ins in Seq1</text>
        <text x="3882.19px" y="874.727px" style="font-family:'Arial-BoldMT', 'Arial';font-weight:700;font-size:37.5px;">&amp;</text>
        <g transform="matrix(37.5,0,0,37.5,4007.23,913.454)">
        </g>
        <text x="3794.66px" y="913.454px" style="font-family:'Arial-BoldMT', 'Arial';font-weight:700;font-size:37.5px;">Del in Seq2</text>
    </g>
    <g transform="matrix(6.12323e-17,1,-1,6.12323e-17,3864.07,2604.74)">
        <g transform="matrix(166.667,0,0,166.667,4349.43,836)">
        </g>
        <text x="3442.04px" y="836px" style="font-family:'Arial-BoldMT', 'Arial';font-weight:700;font-size:166.667px;">Duplication</text>
    </g>
    <g transform="matrix(-6.12323e-17,-1,1,-6.12323e-17,8893.08,5465.3)">
        <g transform="matrix(66.6667,0,0,66.6667,2118.42,47.7539)">
        </g>
        <text x="0px" y="47.754px" style="font-family:'ArialMT', 'Arial';font-size:66.667px;">A<tspan x="40.788px 59.31px " y="47.754px 47.754px "> |</tspan> B | C | D | E | F | G | H | I | L<tspan x="909.115px 927.637px " y="47.754px 47.754px "> |</tspan> M | N | O | P<tspan x="1325.36px 1343.88px " y="47.754px 47.754px "> |</tspan> Q | R | S | <tspan x="1686.07px 1725.59px 1744.11px " y="47.754px 47.754px 47.754px ">T |</tspan> U | V | <tspan x="1980.08px 2023.34px 2041.86px " y="47.754px 47.754px 47.754px ">Y |</tspan> Z</text>
    </g>
</svg>
